<?xml version="1.0"?>
<svg width="355" height="355" xmlns="http://www.w3.org/2000/svg" xmlns:svg="http://www.w3.org/2000/svg">
 <metadata id="metadata4953">image/svg+xml</metadata>
 <g>
  <title>Layer 1</title>
  <g id="layer1">
   <path fill="#ffffff" fill-rule="nonzero" stroke-width="7.2" id="rect3027-1" d="m120.249718,2.99933c-1.634758,0.01563 -3.331657,0.40997 -4.877617,1.26691c-4.909462,2.72137 -6.710083,9.0304 -3.990791,13.936099l11.085518,20.01733c-26.707619,16.52515 -44.405449,44.750614 -44.405449,76.965214c0,0.135246 -0.000366,0.338379 0,0.538437c0.00013,0.070633 -0.000656,0.11084 0,0.190002c0.000038,0.105286 0,0.259026 0,0.285095l0,4.972664c-5.129417,-5.901794 -12.669594,-9.628601 -21.094177,-9.628601c-15.434231,0 -27.967192,12.53302 -27.967192,27.967224l0,86.150391c0,15.434189 12.532961,27.967209 27.967192,27.967209c8.424583,0 15.96476,-3.726868 21.094177,-9.628601l0,12.067368c0,16.269562 13.313011,29.58255 29.58252,29.58255l7.506485,0l0,38.32428c0,15.434326 12.532967,27.967163 27.967186,27.967163c15.434235,0 27.967194,-12.532867 27.967194,-27.967163l0,-38.32428l12.985931,0l0,38.32428c0,15.434326 12.532959,27.967163 27.967209,27.967163c15.434219,0 27.967209,-12.532867 27.967209,-27.967163l0,-38.32428l7.50647,0c16.269516,0 29.582535,-13.312988 29.582535,-29.58255l0,-12.067368c5.129425,5.901733 12.669586,9.628601 21.094177,9.628601c15.434204,0 27.967163,-12.53302 27.967163,-27.967209l0,-86.150391c0,-15.434204 -12.532959,-27.967224 -27.967163,-27.967224c-8.424591,0 -15.964752,3.726807 -21.094177,9.628601l0,-4.877625l0,-0.095024c0.000641,-0.152405 0.000153,-0.304085 0,-0.285034c0.001984,-0.303589 0,-0.545517 0,-0.728447c0,-32.208984 -17.737305,-60.40723 -44.437134,-76.93359l11.117203,-20.049011c2.719269,-4.905701 0.918671,-11.214721 -3.990784,-13.9361c-1.54599,-0.85693 -3.242874,-1.25128 -4.87764,-1.26691c-3.625473,-0.03473 -7.183929,1.87598 -9.058472,5.25769l-11.623962,20.999149c-11.366028,-4.19434 -23.732849,-6.49292 -36.645584,-6.49292c-12.899567,0 -25.289108,2.275089 -36.645569,6.461241l-11.623978,-20.96747c-1.874519,-3.381711 -5.432999,-5.292361 -9.058456,-5.25769l0.000008,0l-0.000015,-0.00002l-0.000015,0.00001z"/>
   <path fill="#a4c639" id="rect3981-7" d="m56.96785,118.827271c-11.51767,0 -20.68243,9.164726 -20.68243,20.682434l0,86.150391c0,11.517639 9.164761,20.682419 20.68243,20.682419c11.51767,0 20.682434,-9.16478 20.682434,-20.682419l0,-86.150391c0,-11.517715 -9.164764,-20.682434 -20.682434,-20.682434zm241.221085,0c-11.51767,0 -20.682434,9.164726 -20.682434,20.682434l0,86.150391c0,11.517639 9.164764,20.682419 20.682434,20.682419c11.51767,0 20.682434,-9.16478 20.682434,-20.682419l0,-86.150391c0,-11.517715 -9.164764,-20.682434 -20.682434,-20.682434z"/>
   <path fill="#a4c639" id="c-4-0" d="m143.117569,217.139832c-11.51767,0 -20.682426,9.164734 -20.682426,20.682434l0,86.150391c0,11.5177 9.164757,20.682373 20.682426,20.682373c11.51767,0 20.682434,-9.164673 20.682434,-20.682373l0,-86.150391c0,-11.5177 -9.164764,-20.682434 -20.682434,-20.682434zm68.920319,0c-11.517685,0 -20.682434,9.164734 -20.682434,20.682434l0,86.150391c0,11.5177 9.164749,20.682373 20.682434,20.682373c11.51767,0 20.682419,-9.164673 20.682419,-20.682373l0,-86.150391c0,-11.5177 -9.164749,-20.682434 -20.682419,-20.682434z"/>
   <path fill="#a4c639" id="ellipse3033" d="m120.313057,10.28412c-0.488907,0.005 -0.944496,0.131161 -1.393608,0.380071c-1.474815,0.8175 -1.959801,2.51227 -1.140228,3.99078l14.56955,26.32025c-28.031143,14.585392 -46.964684,42.303413 -47.002617,74.114624l184.463173,0c-0.037903,-31.811234 -18.971512,-59.529312 -47.00264,-74.114704l14.56955,-26.3202c0.81958,-1.47858 0.334579,-3.17328 -1.140244,-3.99078c-0.449097,-0.24896 -0.904678,-0.37543 -1.393585,-0.38007c-1.046661,-0.01013 -2.038773,0.51282 -2.597214,1.52026l-14.759567,26.605291c-12.073929,-5.355591 -25.616699,-8.361631 -39.907913,-8.361631c-14.291168,0 -27.833969,3.006041 -39.907867,8.361631l-14.759605,-26.605221c-0.558441,-1.00745 -1.550537,-1.530331 -2.597183,-1.520321l0.000015,0.00001l-0.000015,0.00001zm-34.966904,112.090522l0,133.69146c0,12.352966 9.944786,22.297729 22.297737,22.297729l139.867706,0c12.352936,0 22.297729,-9.944763 22.297729,-22.297729l0,-133.69146l-184.463188,0l0,0l0.000015,0z"/>
   <path fill="#ffffff" fill-rule="nonzero" stroke-width="7.2" id="circle3041" d="m135.009048,65.933472c-4.210953,0 -7.696526,3.485596 -7.696526,7.696526c0,4.210953 3.485573,7.696533 7.696526,7.696533c4.210953,0 7.696518,-3.485603 7.696518,-7.696533c0,-4.210938 -3.485565,-7.696526 -7.696518,-7.696526zm85.136856,0c-4.210938,0 -7.696518,3.485596 -7.696518,7.696526c0,4.210953 3.48558,7.696533 7.696518,7.696533c4.210953,0 7.696518,-3.485603 7.696518,-7.696533c0,-4.210938 -3.485565,-7.696526 -7.696518,-7.696526z"/>
  </g>
 </g>
</svg>