<svg xmlns="http://www.w3.org/2000/svg" viewBox="0 0 60 72"><defs><style>.a{fill:#99bce3;}.b{fill:#19486f;}.c{fill:#205b99;}.d{fill:#5294cf;}</style></defs><title>Database_AmazonElasticCache</title><polygon class="a" points="59.8 48.7 30 45 0.2 48.7 30 72 59.8 48.7"/><polygon class="b" points="60 23.3 29.8 27 0 23.3 30 0 60 23.3"/><polygon class="c" points="30 0 0 14.9 0 23.3 30 14.4 30 0"/><polygon class="c" points="30 57.6 0 48.7 0 57.1 30 72 30 57.6"/><polygon class="c" points="30 46.9 17 45 17 27.2 30 25.3 42.3 36.1 30 46.9"/><polygon class="d" points="30 0 60 14.9 60 23.3 30 14.4 30 0"/><polygon class="d" points="30 57.6 60 48.7 60 57.1 30 72 30 57.6"/><polygon class="d" points="30 46.9 43 45 43 27.2 30 25.3 30 46.9"/></svg>