<?xml version="1.0" encoding="utf-8"?>
<!-- Generator: Adobe Illustrator 16.0.0, SVG Export Plug-In . SVG Version: 6.00 Build 0)  -->
<!DOCTYPE svg PUBLIC "-//W3C//DTD SVG 1.1//EN" "http://www.w3.org/Graphics/SVG/1.1/DTD/svg11.dtd">
<svg version="1.1" id="Layer_1" xmlns="http://www.w3.org/2000/svg" xmlns:xlink="http://www.w3.org/1999/xlink" x="0px" y="0px"
	 width="183px" height="183px" viewBox="0 -40 183 183"
	 enable-background="new -134.45 -23.14 317.536 135.106" xml:space="preserve">
<g>
	<path d="M11.961,8.887c0.11,3.292-2.305,5.925-6.145,5.925C2.414,14.812,0,12.178,0,8.887c0-3.402,2.524-6.035,6.035-6.035
		C9.656,2.852,11.961,5.485,11.961,8.887z M2.107,106.871V31.236h7.75v75.635H2.107z"/>
	<path d="M70.894,0c-27.63,0-46.926,22.374-46.926,54.41c0,15.436,4.417,28.629,12.773,38.157
		c8.207,9.356,19.464,14.304,32.557,14.304c28.507,0,46.927-21.42,46.927-54.571C116.225,21.018,98.007,0,70.894,0z M70.096,101.356
		c-24.484,0-37.294-23.78-37.294-47.271c0-12.979,3.245-24.869,9.137-33.48c6.755-9.872,16.546-15.09,28.316-15.09
		c11.702,0,21.489,5.32,28.306,15.386c5.797,8.562,8.989,19.943,8.989,32.048C107.55,81.451,92.148,101.356,70.096,101.356z"/>
	<path d="M158.318,48.919c-14.336-5.81-22.635-11.576-22.635-23.864c0-9.333,7.096-19.379,22.674-19.379
		c7.49,0,13.613,1.874,18.057,3.912l1.861-5.768C174.575,2.062,168.229,0,158.822,0c-18.117,0-30.771,10.97-30.771,26.678
		c0,12.9,7.9,21.586,25.617,28.162c13.016,5.238,21.631,11.402,21.631,24.543c0,13.152-9.751,21.65-24.843,21.65
		c-7.569,0-15.517-2.017-22.349-5.607l-1.715,5.953c5.105,2.797,14.01,5.33,23.133,5.33c20.387,0,33.56-11.172,33.56-28.461
		C183.086,64.345,176.143,56.121,158.318,48.919z"/>
</g>
</svg>
