<?xml version="1.0" encoding="UTF-8" standalone="no"?>
<!-- Generator: Adobe Illustrator 16.0.0, SVG Export Plug-In . SVG Version: 6.00 Build 0)  -->
<!DOCTYPE svg  PUBLIC '-//W3C//DTD SVG 1.1//EN'  'http://www.w3.org/Graphics/SVG/1.1/DTD/svg11.dtd'>
<svg id="Layer_1" xmlns="http://www.w3.org/2000/svg" enable-background="new 0 0 389.728 403.946" xml:space="preserve" height="403.95px" viewBox="0 0 389.728 403.946" width="389.73px" version="1.1" y="0px" x="0px">
<path d="m188.34 6.737c-10.721 0-12.518 0.133-19.643 1.998-8.789 2.33-13.916 5.26-19.907 11.319-3.063 2.996-4.593 4.926-6.059 7.39-3.662 6.325-6.059 13.516-7.524 23.236-0.799 4.727-0.866 6.458-0.799 18.176 0 12.317 1.466 49.869 2.331 61.122 0.599 7.457 0.333 8.255-5.927 16.977-2.197 3.062-5.259 7.524-6.791 9.92-4.194 6.458-10.119 14.781-14.979 21.173-8.989 11.585-11.252 15.847-16.913 31.227-5.46 15.046-8.789 22.503-16.845 38.15-4.128 7.857-5.193 11.187-5.393 16.777-0.267 4.795 0.398 11.453 1.132 12.649 0.599 0.801 1.331 1 2.795 0.6-0.199 0.201-0.332 0.334-0.464 0.4-2.331 1.532-4.994 4.794-6.659 8.92-0.067 0.066-0.067 0.199-0.132 0.268-0.6 0.932-1.266 2.53-2.065 4.993-2.396 6.791-4.394 9.788-7.99 11.719-3.062 1.663-5.793 2.062-13.782 2.062-8.255 0-10.053 0.4-12.516 2.53-4.395 3.729-5.06 11.119-2.064 21.373 2.73 9.254 2.596 13.516-0.933 23.902-1.93 5.725-2.197 6.924-2.197 9.387 0 1.864 0.2 3.262 0.599 4.129 0.865 1.798 3.596 3.996 6.259 5.126 2.995 1.132 18.043 4.86 28.829 6.99 16.711 3.396 22.704 5.194 38.217 11.386 13.782 5.46 19.642 7.459 24.302 8.191 2.197 0.331 6.725-0.066 8.789-0.867 2.463-0.866 4.794-2.463 9.92-6.791 9.055-7.59 13.982-9.986 24.103-11.585 3.795-0.6 7.257-0.666 36.219-0.666 17.579 0 33.091 0.133 34.49 0.332 3.262 0.4 4.526 1.466 7.257 6.26 4.194 7.523 9.321 10.852 18.644 12.251 4.393 0.666 11.916 0.732 15.381 0.199 7.588-1.267 11.385-3.529 19.973-12.118 9.987-10.053 19.31-16.379 32.426-22.104 6.656-2.93 9.652-4.593 17.512-9.92 9.652-6.526 11.517-8.591 11.517-12.851 0-4.46-2.397-7.258-11.253-13.115-8.455-5.595-12.251-8.989-15.778-14.184-2.464-3.66-3.33-6.457-3.662-11.917-0.133-2.53-0.398-4.262-0.732-5.325-0.334-3.795-1.864-8.123-4.593-9.522-3.797-1.997-5.128-1.397-6.393-0.599 4.261-4.795 5.658-7.057 7.058-11.186 2.464-7.324 1.931-15.515-2.33-36.819-4.927-24.769-13.315-42.479-30.628-64.717-10.985-14.182-15.446-21.24-26.164-41.346-5.326-10.054-6.858-13.517-8.124-18.909-1.865-7.79-2.729-14.781-4.127-34.688-1.333-18.577-2.264-26.234-3.995-32.692-4.594-17.577-18.376-30.893-37.616-36.419-8.2-2.328-11.72-2.795-22.78-2.794z" fill="#fff"/>
<g transform="translate(-200.84 -238.94)" fill="#F8BF11">
	<path d="m430.07 355.55c0 9.286-11.063 11.247-16.429 14.577-4.994 4.625-33.741 17.686-41.363 17.686-12.247-2.589-27.156-20.867-29.079-33.002 0-7.066 8.989-12.727 14.021-17.352 4.994-4.625 10.766-8.99 20.608-7.141 7.622 0 19.534 3.625 24.529 8.25 9.99 3.31 27.71 5.46 27.71 16.97z"/>
	<path d="m228.65 603.69c11.377 5.181 37.886 11.804 47.209 12.913 6.253 2.59 47.542 12.209 57.051 12.209 14.096-9.988 16.427-25.122 12.469-40.439-17.575-28.376-31.152-65.56-64.008-78.362-3.292 1.629-5.994 6.031-7.177 6.772-2.368 1.515-4.994 4.81-6.66 8.917-1.738 4.291-3.33 9.545-5.269 17.204-3.795 7.622-19.294 0.739-29.91 6.29-3.86 11.73 2.74 40.67-3.7 54.5z"/>
	<path d="m534.48 560.22c7.104 5.809 18.242 10.137 23.273 19.795-9.583 11.432-17.834 15.465-29.97 21.236-16.647 7.917-27.082 15.354-34.702 20.532-7.624 6.66-25.308 10.73-33.336 9.621-5.069-3.331-10.767-43.77-8.918-56.979 0-7.03-8.62-35.185 5.181-52.353 13.356-2.553 24.826 9.656 33.297 17.981 6.994-4.699 18.059-11.915 26.418-13.726 2.738-0.63 2.85-3.479 8.583-0.482 2.738 1.443 4.329 5.957 4.627 9.805 0.48 6.21 1.11 19.38 5.55 24.56z"/>
</g>
<g transform="translate(-200.84 -238.94)">
	<g transform="matrix(.55569 0 0 .55569 249.67 292.48)">
		<path d="m133.89 621.23c-8.389-1.33-18.975-4.659-43.745-14.648-27.964-11.316-38.683-13.982-68.776-20.637-19.376-3.33-46.547-10.323-51.854-12.453-4.801-1.928-9.787-5.924-11.312-9.188-0.712-1.464-1.086-4.06-1.086-7.392 0-4.525 0.482-6.525 3.97-16.845 6.335-18.774 6.643-26.433 1.715-43.075-5.454-18.444-4.178-31.759 3.683-38.483 4.441-3.794 7.676-4.46 22.504-4.46 14.408 0 19.275-0.733 24.855-3.794 6.424-3.529 10.04-8.855 14.302-21.108 2.728-7.924 4.525-11.05 6.255-11.05 1.4 0 2.599 3.46 2.599 7.655 0 3.726-4.196 19.438-6.259 23.5-2.197 4.395-5.194 7.79-8.65 9.787-6.443 3.796-18.862 4.796-32.484 2.731-8.702-1.395-13.696-1.065-17.024 0.931-4.927 2.996-5.733 9.724-2.157 18.047 6.924 16.043 8.249 19.507 9.715 24.899 1.737 6.458 2.017 12.119 0.924 18.843-1.085 6.659-2.996 10.852-8.649 18.776-2.915 4.126-5.586 8.522-5.939 9.854-0.998 3.597 0.473 6.327 4.441 8.388 3.37 1.666 51.415 14.115 85.358 21.774 10.453 2.661 29.494 7.323 42.278 10.65 12.851 3.332 26.167 5.993 29.628 6.659 10.719 1.33 20.641 0 27.496-3.996 9.522-5.989 16.18-19.772 16.979-35.819 0.532-10.586-1.797-20.108-7.989-32.426-4.727-9.453-7.058-13.115-29.495-47.003-39.615-59.658-56.793-79.564-71.44-82.629-4.727-0.931-7.856-0.401-14.183 2.464-6.058 2.729-8.123 2.863-9.587 0.664-1.4-2.128-2.529-14.047-2.132-22.704 0.468-10.054 2.398-16.045 9.722-30.292 14.513-28.08 20.44-41.53 30.358-68.56 10.187-27.698 14.316-35.356 30.361-56.263 8.788-11.384 19.443-26.431 26.966-38.018 2.864-4.328 8.389-12.383 12.317-17.91 11.187-15.713 11.719-17.178 10.654-30.561-1.6-20.174-4.263-87.821-4.263-109.92-0.068-21.039 0.067-24.235 1.4-32.758 2.73-17.418 6.989-30.486 13.647-41.806 2.529-4.422 5.393-7.917 10.786-13.363 10.786-10.879 20.108-16.099 35.887-20.227 12.85-3.364 16.113-3.698 35.357-3.681 19.837 0.017 26.164 0.802 40.945 5.049 34.622 9.947 59.456 33.93 67.781 65.508 3.061 11.651 4.726 25.5 7.123 58.924 2.529 35.754 4.06 48.336 7.457 62.451 2.262 9.588 4.993 15.914 14.583 33.957 19.308 36.219 27.297 48.871 47.072 74.303 31.158 40.081 46.209 71.907 55.129 116.52 7.655 38.35 8.59 53.063 4.193 66.315-2.661 7.989-5.258 11.982-14.381 22.036-19.177 21.24-40.547 34.557-55.194 34.557-13.316 0-25.5-9.054-34.223-25.5-4.06-9.054-3.529-16.314-15.179-13.716-5.661 1.529-10.321 8.388-11.72 17.245-1.065 6.327-0.863 30.561 0.271 36.617 0.464 2.731 2.06 10.854 3.395 17.98 2.394 12.316 2.527 13.646 2.527 26.298 0 11.651-0.265 15.18-2.199 27.964-1.796 11.987-2.13 16.115-1.93 22.637 0.265 7.594 0.399 8.325 2.662 13.05 2.729 5.993 8.722 12.651 13.913 15.982 11.453 7.325 27.431 7.989 40.88 1.332 3.796-2 9.325-5.993 18.644-13.318 15.115-12.251 26.368-20.039 34.889-24.37 3.262-1.597 11.121-4.594 17.446-6.659 26.234-8.453 38.216-13.511 44.873-19.04 7.926-6.46 11.72-13.449 10.321-18.709-1.796-6.525-9.321-11.186-24.702-15.182-11.583-3.061-14.381-4.46-19.108-9.652-4.193-4.597-7.457-11.188-9.852-19.974-2.332-8.59-2.666-22.503-0.666-27.964 1.395-3.864 2.796-5.662 4.392-5.662 1.868 0 2.8 3.262 3.332 11.985 0.664 9.724 2.197 14.848 6.657 21.373 6.325 9.39 13.05 15.446 28.296 25.565 15.913 10.521 20.308 15.583 20.308 23.637 0 7.659-3.395 11.386-20.707 23.036-14.18 9.59-19.507 12.651-31.489 17.846-23.637 10.319-40.418 21.772-58.461 39.747-15.446 15.314-22.169 19.976-35.953 21.973-6.191 0.664-19.709 0.664-27.63-0.666-16.78-1.996-25.9-7.989-33.557-21.971-4.859-8.655-7.126-10.651-12.982-11.321-2.532 0-30.494-0.664-62.187-0.664-52.066 0-58.324 0.664-65.051 1.334-18.241 3.327-27.23 7.323-43.477 20.641-9.188 7.989-13.381 10.651-17.844 12.648-3.661 1.334-11.852 2-15.779 1.334l0.03-0.03zm60.06-42.94c1.467-1.267 3.664-4.195 4.927-6.525 1.998-3.731 2.266-4.861 2.464-10.587 0.467-10.521-1.795-16.446-9.255-24.303-5.126-5.392-5.858-7.722-2.929-9.054 2.731-1.197 6.191 0.332 12.385 5.525 11.716 9.917 18.64 11.586 44.208 11.05 27.498-0.664 42.48-3.525 57.593-11.119 9.785-4.928 16.245-10.518 24.435-21.37 5.792-7.594 8.388-10.191 11.651-11.518 5.393-2.267 8.256 2.13 8.123 12.583-0.067 4.859-0.599 7.924-2.798 16.047-5.991 21.637-7.856 33.823-6.191 40.014 0.996 3.597 4.126 6.323 6.991 6.061 1.998-0.202 2.063-0.334 2.596-4.198 0.269-2.197 1.399-9.65 2.532-16.642 1.065-6.926 2.395-15.915 2.993-19.973 1.399-10.521 2.466-43.147 2.532-78.568 0.067-30.557 0.067-30.626 1.666-35.288 1.262-3.592 2.394-5.392 4.993-7.989 4.061-3.993 7.856-5.46 16.446-6.058l5.724-0.467 0.801-4.061c1.928-9.254 7.457-14.514 18.374-17.442 3.529-0.935 7.058-1.265 14.648-1.265 10.985 0 14.05 0.664 23.967 5.46 4.465 2.13 8.325 2.863 8.325 1.597 0-1-5.392-6.058-9.724-9.123-2.258-1.666-6.19-3.796-8.652-4.796-3.395-1.395-4.661-2.26-4.794-3.262-0.134-0.796 0.866-5.258 2.198-9.984 3.859-13.982 5.123-22.841 5.19-36.156 0.137-21.902-3.726-36.417-16.442-60.985-11.787-22.772-24.238-39.483-34.09-45.743-2.865-1.733-6.26-2.93-6.26-2.197 0 0.266 2.397 3.793 5.26 7.921 13.583 19.243 27.698 43.813 33.691 58.791 4.859 11.985 8.521 28.231 9.655 43.01 1.928 24.236-4.662 44.942-15.98 50.005-2.265 1.065-4.794 1.464-10.323 1.596-8.787 0.336-9.985-0.132-12.316-4.792l-1.664-3.328-0.399-26.633c-0.734-45.342-2.865-53.064-26.631-96.01-7.327-13.181-8.79-16.645-11.919-28.627-6.393-24.636-12.585-39.084-22.307-52.136-14.846-19.84-16.778-28.096-10.852-46.406 3.792-11.918 3.727-18.043-0.267-22.105-2.93-2.995-5.193-4.061-18.576-8.322-20.307-6.458-29.693-12.251-32.292-19.909-2.597-7.522-0.735-19.773 3.93-25.833 3.327-4.393 7.59-6.258 14.115-6.258 4.327 0.067 6.058 0.399 9.054 1.731 4.594 2.198 8.254 5.327 10.119 8.855 2 3.794 1.933 12.782-0.132 19.375-3.397 10.719-3.263 9.588-0.866 11.718 4.33 3.862 11.186 4.194 14.182 0.599 2.597-3.063 3.395-6.192 3.731-14.981 0.399-9.587-0.601-15.979-4.529-28.031-5.392-16.512-10.785-21.306-27.097-23.969-12.184-1.996-18.843-0.399-24.967 5.926-9.59 9.987-14.383 25.9-12.453 41.88 1.067 8.855 0.866 9.254-4.126 7.657-4.46-1.399-14.249-2.53-19.909-2.331-6.06 0.266-6.59-0.266-6.59-7.059-0.069-27.63-8.39-42.678-23.638-42.545-10.586 0-19.176 8.058-22.371 20.84-1.265 4.994-0.999 19.309 0.4 27.63 2.864 16.378 9.054 24.568 13.914 18.177 1.998-2.73 3.73-6.191 3.73-7.324 0-0.466-1.532-1.532-3.331-2.396-1.996-0.932-3.793-2.398-4.594-3.729-3.795-6.059-5.658-16.912-4.061-22.705 2.065-7.325 12.119-11.851 19.043-8.588 5.86 2.795 12.119 15.713 11.454 23.835-0.532 6.459-1.732 8.457-7.592 12.782-2.93 2.132-7.656 5.993-10.586 8.589-2.93 2.598-6.523 5.593-7.989 6.659-7.457 5.393-11.652 11.718-11.652 17.71 0 3.929 1.6 6.059 6.593 8.522 3.929 1.997 7.458 5.459 11.186 10.919 4.995 7.192 10.919 9.456 24.502 9.389 16.578-0.067 31.426-3.596 59.256-13.982 15.114-5.661 19.308-7.458 20.175-8.788 2.464-3.597 5.327-6.126 7.058-6.126 2.33 0 4.395 2.197 4.395 4.595 0 4.061-6.258 7.39-27.964 14.78-6.392 2.198-16.314 6.193-21.971 8.855-11.453 5.46-14.65 6.592-22.173 8.057-6.195 1.198-20.507 1.331-28.363 0.266-6.392-0.866-10.253-0.399-9.92 1.265 0.334 1.731 15.114 13.249 18.511 14.514 4.792 1.664 14.248 1.997 20.371 0.599 9.254-1.998 38.485-14.582 52.999-22.705 4.859-2.729 7.59-3.862 9.321-3.862 2.931-0.067 5.193 1.798 5.193 4.128 0 2.531-4.928 6.857-10.319 9.122-9.522 3.862-11.518 4.928-20.973 10.919-12.917 8.255-18.577 12.383-27.099 19.841-9.123 7.922-11.718 8.988-21.839 9.121-8.056 0.066-10.518-0.733-15.779-5.26-4.127-3.529-13.982-15.78-16.779-20.906-2.928-5.328-9.453-12.718-11.185-12.718-1.132 0-1.264 0.266-3.196 8.656-1.333 5.993-6.259 17.311-14.249 32.956-9.586 18.843-10.054 20.508-10.054 40.282 0 16.511 0.4 15.114-7.658 26.3-9.853 13.849-25.166 50.002-28.827 68.244-2.797 13.65-4.728 36.888-4.196 49.936 0.399 10.39-0.134 13.451-2.596 14.983-2.532 1.597-5.527-0.069-11.719-6.195-9.723-9.787-12.849-17.91-12.784-33.422 0.069-9.855 0.933-17.447 2.863-24.77 1.666-6.258 1.731-8.056 0.202-7.722-1.601 0.265-5.195 7.657-6.925 14.247-1.065 3.928-1.466 7.987-1.732 16.247-0.268 10.119-0.199 11.585 1.398 18.641 1.998 8.855 5.791 17.112 11.052 24.036 8.055 10.653 48.871 46.873 76.033 67.579 6.525 4.928 13.782 11.122 16.18 13.72 14.381 15.577 11.586 29.826-8.056 40.812-3.063 1.731-5.596 3.263-5.596 3.395 0 0.134 2.532 3.662 5.596 7.724 11.25 15.18 17.775 26.303 20.041 34.09 1.531 5.126 1.464 12.514-0.201 17.245-0.666 2.128-1.065 3.859-0.799 3.859 0.29 0.02 1.68-1.32 3.15-2.31zm11.52-495.76c-2.064-3.928 1.797-7.323 8.389-7.323 2.33 0 4.393 0.265 4.594 0.664 0.467 0.8-1.8 1.997-3.795 1.997-1.198 0-1.864 0.666-2.862 2.864-1.067 2.33-1.663 2.863-3.462 2.996-1.61 0.134-2.27-0.132-2.87-1.198zm39.48-2.862c-3.863-1.398-6.857-3.33-6.126-4.062 0.2-0.199 2.464-0.532 4.993-0.798 5.993-0.533 8.256 0.333 8.256 2.995 0 1.332-0.466 2.264-1.264 2.73-0.733 0.333-1.399 0.665-1.532 0.599-0.07 0-2.07-0.664-4.33-1.464zm-138.62 186.63c6.392-6.594 8.19-9.921 7.79-14.65-0.199-3.263-1.466-4.394-4.128-3.728-1.931 0.466-2.996 2.464-4.727 8.522-0.734 2.93-1.931 4.86-4.661 7.925-3.662 4.125-4.328 5.655-2.864 7.121 1.535 1.53 2.804 0.8 8.594-5.19zm256.07-112.39c1.397-0.866 4.195-7.724 4.195-10.32 0-2.065-0.399-2.996-2.063-4.528-1.134-1.066-2.332-1.93-2.666-1.93-0.332 0-2.928-1.066-5.792-2.463-3.462-1.664-6.525-3.729-9.522-6.659-2.395-2.263-4.726-4.194-5.125-4.194-0.401 0-0.933 0.799-1.199 1.73-0.735 3.064 0.33 7.79 3.128 13.383 2.397 4.994 3.262 5.994 8.789 10.521 5.91 4.86 8.11 5.79 10.24 4.46zm-160.19-89.151c0.799-2.063 0.597-3.661-1.466-10.385-0.865-2.93-2.131-5.393-3.462-6.859-1.931-2.064-2.263-2.197-3.795-1.397-2.198 1.198-1.996 3.862 0.599 6.791 1.931 2.198 3.596 6.392 4.393 11.187 0.54 3.06 2.67 3.46 3.74 0.663zm93.81-1.863c1.464-1.731 0.397-9.987-1.601-13.049-2.063-3.129-6.856-5.992-10.65-6.392-2.532-0.332-2.996-0.133-3.731 1.132-0.931 1.731-0.467 2.264 2.796 3.263 4.128 1.331 7.924 6.991 8.924 13.25 0.397 2.33 0.729 2.796 1.928 2.796 0.86-0.002 1.86-0.468 2.33-1zm4.46-89.685c4.792-3.309 5.126-3.455 9.72-3.576 5.859-0.152 7.126-0.645 7.126-2.71 0-3.215-11.054-13.016-15.716-13.882-4.659-0.879-6.323 1.651-7.255 11.125-0.401 3.543-0.868 5.02-2.401 6.918-2.061 2.617-2.395 4.154-1.065 5.473 1.32 1.366 4.18 0.36 9.58-3.348z"/>
	</g>
</g>
</svg>
