<?xml version="1.0" encoding="UTF-8" standalone="no"?>
<svg width="256px" height="256px" viewBox="0 0 256 256" version="1.1" xmlns="http://www.w3.org/2000/svg" xmlns:xlink="http://www.w3.org/1999/xlink" preserveAspectRatio="xMinYMin meet">
	<path d="M255.28,19.1658667 C253.437867,17.6554667 238.961067,9.89226667 238.961067,9.89226667 L223.5136,18.8672 L223.505067,18.8618667 L238.952533,9.888 L223.5104,0.6848 L223.505067,18.8618667 L207.394133,9.84426667 C207.394133,9.84426667 194.215467,17.5477333 187.816533,21.2405333 C179.762133,25.888 160.007467,37.6501333 160.007467,37.6501333 L160.007467,55.0197333 L143.733333,97.4197333 L143.733333,120.442667 L132.311467,127.109333 L127.7664,138.9984 L95.7386667,55.9136 L95.744,37.6928 L31.9146667,0.664533333 L0.0309333333,19.1210667 L0,19.1136 L0,37.8901333 L19.8837333,85.7813333 L31.9669333,92.8981333 L31.9776,114.738133 L79.8784,231.0816 L127.7504,258.477867 L127.7504,258.635733 L175.559467,230.9696 L255.4528,37.5082667 L255.28,19.1658667" fill="#3185B8"></path>
	<path d="M127.7856,258.498133 L79.8784,231.0816 L31.9776,114.738133 L31.9669333,92.8981333 L19.8837333,85.7813333 L0,37.8901333 L0,19.1136 L15.7333333,28.2869333 L15.7333333,46.7712 L31.9946667,56.208 L31.9968,37.616 L63.7685333,55.9989333 L65.3002667,74.1973333 L111.489067,194.088533 L143.588267,212.7872 L143.588267,249.454933 L127.7408,240.133333 L127.7856,258.498133" fill="#3185B8"></path>
	<path d="M95.7386667,55.9136 L127.7664,138.9984 L127.700267,184.7648 L111.466667,193.997867 L65.3002667,74.064 L63.7685333,55.9989333 L95.744,37.6928 L95.7386667,55.9136" fill="#61A5CE"></path>
	<path d="M15.7333333,28.2869333 L15.7333333,46.7712 L31.9968,37.616 L15.7333333,28.2869333" fill="#61A5CE"></path>
	<path d="M31.9946667,56.208 L31.9968,37.616 L15.7333333,46.7712 L31.9946667,56.208" fill="#EAE9E6"></path>
	<path d="M127.700267,184.7648 L143.710933,193.9264 L161.537067,149.169067 L175.265067,157.3376 L175.265067,114.442667 L179.6448,104.0864 L191.333333,110.9312 L191.333333,92.7978667 L175.421867,83.5530667 L191.421867,74.2645333 L175.688533,65.1978667 L175.646933,46.768 L160.007467,37.6501333 L160.007467,55.0197333 L143.733333,97.4197333 L143.733333,120.442667 L132.311467,127.109333 L127.7664,138.9984 L127.700267,184.7648" fill="#3185B8"></path>
	<path d="M127.480533,203.5008 L143.588267,212.7872 L143.508267,249.463467 L175.559467,230.9696 L255.4528,37.5082667 L255.28,19.1658667 L207.394133,46.768 L207.394133,83.5925333 L191.333333,92.7978667 L191.333333,110.9312 L179.6448,104.0864 L175.265067,114.442667 L175.265067,157.248 L153.0208,170.328533 L143.710933,193.9264 L127.480533,203.5008" fill="#61A5CE"></path>
	<path d="M63.6672,74.3978667 L79.7333333,65.0645333 L79.7333333,83.5306667 L63.6672,74.3978667" fill="#EAE9E6"></path>
	<path d="M79.7333333,83.5306667 L95.6661333,92.5312 L95.6661333,74.3978667 L79.7333333,65.0645333 L79.7333333,83.5306667" fill="#3185B8"></path>
	<path d="M47.8453333,120.196267 L47.8453333,138.795733 L63.9317333,129.5392 L47.8453333,120.196267" fill="#61A5CE"></path>
	<path d="M79.9882667,138.882133 L63.8453333,148.2816 L47.8453333,138.795733 L63.9317333,129.5392 L79.9882667,138.882133" fill="#EAE9E6"></path>
	<path d="M79.7706667,194.133333 L79.7706667,212.890667 L95.9402667,203.541333 L79.7706667,194.133333" fill="#61A5CE"></path>
	<path d="M111.522133,230.8832 L127.809067,240.349867 L127.867733,221.298133 L111.522133,230.8832" fill="#EAE9E6"></path>
	<path d="M127.7504,258.635733 L127.809067,240.349867 L143.508267,249.463467 L127.7504,258.635733" fill="#61A5CE"></path>
	<path d="M127.700267,184.7648 L111.466667,193.997867 L127.480533,203.5008 L143.710933,193.9264 L127.700267,184.7648" fill="#EAE9E6"></path>
	<path d="M207.394133,83.5925333 L207.394133,46.768 L191.540267,37.7429333 L191.540267,56.0896 L175.688533,65.1978667 L207.394133,83.5925333" fill="#3185B8"></path>
	<path d="M175.421867,83.5530667 L191.421867,74.2645333 L207.394133,83.5925333 L191.333333,92.7978667 L175.421867,83.5530667" fill="#EAE9E6"></path>
	<path d="M175.688533,65.1978667 L191.540267,56.0896 L191.540267,37.7429333 L175.646933,46.768 L175.688533,65.1978667" fill="#61A5CE"></path>
	<path d="M223.505067,18.8629333 L223.5104,0.6848 L238.952533,9.888 L223.505067,18.8629333" fill="#3185B8"></path>
	<path d="M255.28,19.1658667 L207.394133,46.768 L191.540267,37.7429333 L175.646933,46.768 L160.007467,37.6501333 C160.007467,37.6501333 179.762133,25.888 187.816533,21.2405333 C194.215467,17.5477333 207.394133,9.84426667 207.394133,9.84426667 L223.5136,18.8672 L238.961067,9.89226667 C238.961067,9.89226667 253.437867,17.6554667 255.28,19.1658667 C250.923733,21.7109333 255.28,19.1658667 255.28,19.1658667" fill="#EAE9E6"></path>
	<path d="M95.744,37.6928 L63.7685333,55.9989333 L0.0309333333,19.1210667 L31.9146667,0.664533333 L95.744,37.6928" fill="#EAE9E6"></path>
	<path d="M239.204267,46.3477333 L239.204267,28.432 L223.624533,37.4218667 L239.204267,46.3477333" fill="#3185B8"></path>
	<path d="M191.979733,129.6384 L207.482667,120.744533 L207.482667,138.5824 L191.979733,129.6384" fill="#3185B8"></path>
	<path d="M159.582933,203.378133 L159.582933,221.8624 L175.7312,212.520533 L159.582933,203.378133" fill="#EAE9E6"></path>
	<path d="M175.831467,212.520533 L175.632,194.1856 L159.582933,203.378133 L175.831467,212.520533" fill="#3185B8"></path>
</svg>